<?xml version="1.0" encoding="iso-8859-1"?>
<!-- Generator: Adobe Illustrator 19.0.0, SVG Export Plug-In . SVG Version: 6.00 Build 0)  -->
<svg xmlns="http://www.w3.org/2000/svg" xmlns:xlink="http://www.w3.org/1999/xlink" version="1.1" id="Capa_1" x="0px" y="0px" viewBox="0 0 480.001 480.001" style="enable-background:new 0 0 480.001 480.001;" xml:space="preserve" width="512px" height="512px">
<g>
	<g>
		<path d="M64,40.001c-13.255,0-24,10.745-24,24c0.014,13.249,10.751,23.986,24,24c13.255,0,24-10.745,24-24    S77.255,40.001,64,40.001z M64,72.001c-4.418,0-8-3.582-8-8c0.003-4.417,3.583-7.997,8-8c4.418,0,8,3.582,8,8    S68.418,72.001,64,72.001z" fill="#505050"/>
	</g>
</g>
<g>
	<g>
		<path d="M123.531,49.313l-9.703-4.773c-0.273-0.695-0.563-1.383-0.867-2.07l3.164-9.922c0.796-2.483,0.329-5.198-1.25-7.273    c-3.484-4.576-7.567-8.662-12.141-12.148c-2.076-1.576-4.789-2.045-7.273-1.258l-9.93,3.172c-0.688-0.305-1.375-0.594-2.07-0.867    l-4.773-9.703c-1.348-2.734-4.131-4.466-7.18-4.469H56.492c-3.048,0.003-5.831,1.735-7.18,4.469l-4.773,9.703    c-0.687,0.273-1.383,0.563-2.07,0.867l-9.922-3.172c-2.485-0.79-5.199-0.321-7.273,1.258c-4.576,3.483-8.662,7.567-12.148,12.141    c-1.578,2.075-2.048,4.789-1.258,7.273l3.172,9.93c-0.305,0.688-0.594,1.375-0.867,2.07l-9.703,4.773    C1.735,50.662,0.003,53.444,0,56.493v15.016c0.003,3.048,1.735,5.831,4.469,7.18l9.703,4.773c0.273,0.687,0.563,1.383,0.867,2.07    l-3.172,9.922c-0.789,2.485-0.32,5.198,1.258,7.273c3.483,4.576,7.567,8.662,12.141,12.148c2.076,1.575,4.789,2.044,7.273,1.258    l9.93-3.172c0.688,0.305,1.375,0.594,2.07,0.867l4.773,9.703c1.348,2.734,4.131,4.466,7.18,4.469h15.016    c3.048-0.003,5.831-1.735,7.18-4.469l4.773-9.703c0.695-0.273,1.383-0.563,2.07-0.867l9.922,3.164    c2.483,0.796,5.198,0.329,7.273-1.25c4.576-3.483,8.662-7.567,12.148-12.141c1.578-2.075,2.047-4.789,1.258-7.273l-3.172-9.93    c0.305-0.688,0.594-1.375,0.867-2.07l9.703-4.773c2.734-1.348,4.466-4.131,4.468-7.18V56.493    C127.997,53.444,126.265,50.661,123.531,49.313z M112,66.532l-8.148,4.008c-1.962,0.968-3.443,2.695-4.102,4.781    c-0.651,2.047-1.48,4.034-2.477,5.938c-0.976,1.887-1.165,4.084-0.523,6.109l2.805,8.789c-1.078,1.188-2.211,2.328-3.398,3.398    l-8.789-2.797c-2.024-0.651-4.223-0.465-6.109,0.516c-1.903,0.997-3.89,1.825-5.938,2.477c-2.086,0.658-3.813,2.14-4.781,4.102    l-4.008,8.148h-5.063l-4.008-8.148c-0.968-1.962-2.695-3.443-4.781-4.102c-2.047-0.651-4.034-1.48-5.938-2.477    c-1.888-0.971-4.083-1.16-6.109-0.523l-8.789,2.805c-1.188-1.078-2.328-2.211-3.398-3.398l2.805-8.797    c0.642-2.031,0.451-4.235-0.531-6.125c-0.992-1.897-1.818-3.875-2.469-5.914c-0.658-2.086-2.14-3.813-4.102-4.781L16,66.532    v-5.063l8.148-4.008c1.962-0.968,3.443-2.695,4.102-4.781c0.651-2.047,1.48-4.034,2.477-5.938    c0.976-1.887,1.165-4.084,0.523-6.109l-2.805-8.789c1.078-1.188,2.211-2.328,3.398-3.398l8.797,2.805    c2.031,0.641,4.234,0.45,6.125-0.531c1.897-0.992,3.875-1.818,5.914-2.469c2.086-0.658,3.813-2.14,4.781-4.102l4.007-8.148h5.063    l4.008,8.148c0.968,1.962,2.695,3.443,4.781,4.102c2.047,0.651,4.034,1.48,5.938,2.477c1.887,0.975,4.084,1.164,6.109,0.523    l8.789-2.805c1.188,1.078,2.328,2.211,3.398,3.398l-2.797,8.789c-0.648,2.024-0.462,4.223,0.516,6.109    c0.997,1.903,1.825,3.89,2.477,5.938c0.658,2.086,2.14,3.813,4.102,4.781L112,61.469V66.532z" fill="#505050"/>
	</g>
</g>
<g>
	<g>
		<path d="M119.078,201.915c-5.694-6.294-13.779-9.894-22.266-9.914h-0.008c-8.492,0.02-16.582,3.619-22.281,9.914L64,213.298    l-10.531-11.391c-5.699-6.291-13.785-9.887-22.273-9.906h-0.008c-8.487,0.02-16.572,3.62-22.266,9.914    c-11.816,13.179-11.816,33.141,0,46.32l49.203,53.196c2.998,3.245,8.059,3.444,11.304,0.446c0.154-0.143,0.303-0.291,0.446-0.446    l49.195-53.188C130.893,235.064,130.896,215.098,119.078,201.915z M107.328,237.376L64,284.219l-43.336-46.852    c-6.275-6.998-6.272-17.6,0.008-24.594c5.093-5.814,13.935-6.399,19.749-1.306c0.463,0.406,0.9,0.842,1.306,1.306l16.398,17.734    c3.194,3.245,8.413,3.286,11.657,0.093c0.031-0.031,0.062-0.062,0.093-0.093l16.391-17.727c5.089-5.818,13.932-6.409,19.75-1.32    c0.466,0.408,0.905,0.846,1.313,1.312C113.61,219.772,113.61,230.378,107.328,237.376z" fill="#505050"/>
	</g>
</g>
<g>
	<g>
		<path d="M113.531,379.298l-59.484,81.789l-41.609-27.742l-8.875,13.312l48,32c1.311,0.876,2.853,1.344,4.43,1.344    c2.563,0.003,4.971-1.223,6.477-3.297l64-88L113.531,379.298z" fill="#505050"/>
	</g>
</g>
<g>
	<g>
		<rect x="144" y="232.001" width="24" height="16" fill="#505050"/>
	</g>
</g>
<g>
	<g>
		<path d="M261.659,234.347c-0.001-0.001-0.002-0.002-0.003-0.003l-32-32l-11.312,11.313l18.344,18.344H200v-176h-16v368h16v-176    h36.688l-18.344,18.344l11.313,11.312l32-32C264.78,242.535,264.781,237.471,261.659,234.347z" fill="#505050"/>
	</g>
</g>
<g>
	<g>
		<path d="M360,160.001c-22.091,0-40,17.909-40,40s17.909,40,40,40c22.091,0,40-17.909,40-40    C399.974,177.92,382.081,160.027,360,160.001z M360,224.001c-13.255,0-24-10.745-24-24s10.745-24,24-24s24,10.745,24,24    C383.986,213.25,373.249,223.986,360,224.001z" fill="#505050"/>
	</g>
</g>
<g>
	<g>
		<path d="M479.203,384.868l-57.902-119.742l1.809,0.219c5.545,0.682,11.026-1.688,14.328-6.195    c3.486-4.705,4.189-10.916,1.844-16.281l-8.203-18.906l17.07-10.063c7.676-4.625,10.149-14.598,5.523-22.274    c-1.364-2.263-3.26-4.159-5.523-5.523l-17.016-10.328l8.148-18.633c2.349-5.364,1.648-11.575-1.835-16.281    c-3.29-4.524-8.778-6.902-14.328-6.211l-19.07,2.391l-3.852-20.078c-1.068-5.741-5.194-10.437-10.75-12.234    c-5.418-1.703-11.334-0.303-15.414,3.648l-13.711,13.883l-14.414-13.891c-3.975-3.944-9.81-5.355-15.148-3.664    c-5.49,1.797-9.561,6.446-10.617,12.125l-3.852,20.18l-19.453-2.352c-5.548-0.698-11.036,1.676-14.328,6.195    c-3.49,4.704-4.193,10.916-1.844,16.281l8.203,18.906l-17.07,10.063c-7.676,4.625-10.149,14.598-5.523,22.274    c1.364,2.263,3.26,4.159,5.523,5.523l17.016,10.328l-8.149,18.625c-2.351,5.363-1.653,11.573,1.828,16.281    c3.293,4.525,8.782,6.906,14.336,6.219l1.757-0.22L240.82,382.438c-1.948,3.966-0.312,8.76,3.654,10.708    c2.579,1.267,5.64,1.053,8.018-0.56L288,368.509v55.492c0.001,3.978,2.922,7.352,6.859,7.922c0.381,0.053,0.764,0.079,1.149,0.078    c3.546-0.001,6.667-2.339,7.664-5.742l38.871-132.16c1.229-0.671,2.363-1.503,3.372-2.473l13.711-13.883l14.414,13.891    c1.021,0.953,2.165,1.765,3.403,2.412l38.878,132.205c0.997,3.403,4.118,5.742,7.664,5.742c0.384,0.001,0.768-0.025,1.148-0.078    c3.937-0.57,6.859-3.944,6.86-7.922L432,368.094l35.172,26.633c3.521,2.668,8.539,1.976,11.206-1.546    C480.193,390.785,480.512,387.574,479.203,384.868z M304,368.446v-15.031c0-2.961-1.635-5.681-4.25-7.07    c-2.618-1.392-5.792-1.218-8.242,0.453l-22.969,15.578l47.806-97.087l3.405,17.751c0.784,4.033,3.087,7.61,6.434,9.993    L304,368.446z M388.328,259.946l-3.188,20.164l-14.414-13.891c-5.994-5.815-15.526-5.812-21.516,0.008l-13.742,13.797    l-3.852-20.078c-1.524-8.122-9.031-13.712-17.25-12.844l-19.047,2.172l8.148-18.641c3.316-7.475,0.537-16.249-6.477-20.453    l-17.07-10.297L297,189.821c7.009-4.208,9.783-12.98,6.469-20.453l-8.563-18.828l19.453,2.352    c8.187,0.946,15.711-4.602,17.227-12.703l4.102-19.445l13.523,13.031c5.994,5.82,15.529,5.82,21.523,0l13.742-13.797l3.852,20.078    c1.524,8.122,9.032,13.712,17.25,12.844l19.047-2.172l-8.148,18.641c-3.315,7.475-0.537,16.249,6.477,20.453l16.992,10.344    l-17,10.016c-7.007,4.21-9.783,12.978-6.477,20.453l8.57,18.828l-19.453-2.352C397.365,246.229,389.849,251.819,388.328,259.946z     M428.828,345.626c-3.519-2.668-8.535-1.979-11.203,1.54c-1.055,1.391-1.625,3.089-1.625,4.835v16.453l-22.195-75.459    c3.322-2.381,5.609-5.943,6.39-9.955l3.155-18.274l46.97,97.134L428.828,345.626z" fill="#505050"/>
	</g>
</g>
<g>
	<g>
		<rect x="144" y="48.001" width="24" height="16" fill="#505050"/>
	</g>
</g>
<g>
	<g>
		<rect x="144" y="416.001" width="24" height="16" fill="#505050"/>
	</g>
</g>
<g>
</g>
<g>
</g>
<g>
</g>
<g>
</g>
<g>
</g>
<g>
</g>
<g>
</g>
<g>
</g>
<g>
</g>
<g>
</g>
<g>
</g>
<g>
</g>
<g>
</g>
<g>
</g>
<g>
</g>
</svg>
