<?xml version="1.0" encoding="iso-8859-1"?>
<!-- Generator: Adobe Illustrator 19.0.0, SVG Export Plug-In . SVG Version: 6.00 Build 0)  -->
<svg xmlns="http://www.w3.org/2000/svg" xmlns:xlink="http://www.w3.org/1999/xlink" version="1.1" id="Capa_1" x="0px" y="0px" viewBox="0 0 480 480" style="enable-background:new 0 0 480 480;" xml:space="preserve" width="512px" height="512px">
<g>
	<g>
		<path d="M24,240c-5.121,0-10.563,0.234-16.637,0.719C3.205,241.052,0,244.524,0,248.695V472c0,4.418,3.582,8,8,8h214.516    c4.051-0.001,7.463-3.029,7.945-7.051c1.011-8.278,1.525-16.609,1.539-24.949C231.87,333.179,138.821,240.13,24,240z     M96.843,270.394c18.755,7.734,36.167,18.387,51.592,31.564c-10.67,7.49-22.362,13.406-34.717,17.566    c-7.201-14.75-15.958-28.689-26.122-41.578C90.934,275.758,94.033,273.227,96.843,270.394z M16,256.195    c2.797-0.129,5.449-0.195,8-0.195c18.763-0.004,37.425,2.751,55.386,8.178c-2.408,1.68-4.923,3.199-7.53,4.548    C57.009,276.186,40.615,280.048,24,280c-2.76,0-5.333-0.157-8-0.24V256.195z M16,295.759c2.673,0.078,5.241,0.241,8,0.241    c16.964,0.011,33.747-3.489,49.292-10.281c9.729,11.927,18.105,24.896,24.973,38.671C71.42,331.586,43.79,335.443,16,335.875    V295.759z M16,351.869c30.15-0.475,60.112-4.847,89.142-13.005c7.753,17.946,13.607,36.654,17.466,55.819    C87.686,403.105,51.921,407.536,16,407.892V351.869z M127.576,464H16v-40.109c36.819-0.368,73.48-4.869,109.295-13.419    c1.782,12.43,2.686,24.971,2.705,37.528C128,452.995,127.828,458.377,127.576,464z M120.428,333.891    c14.302-4.885,27.772-11.929,39.944-20.887c15.257,15.402,27.807,33.266,37.124,52.841    c-18.797,10.481-38.742,18.754-59.439,24.653C134.081,371.09,128.176,352.126,120.428,333.891z M215.301,464h-71.709    c0.243-5.596,0.408-10.975,0.408-16c-0.031-13.955-1.095-27.888-3.183-41.686c21.895-6.125,43.023-14.719,62.978-25.616    C211.88,402.215,216.014,425.014,216,448C216,453.25,215.77,458.535,215.301,464z" fill="#505050"/>
	</g>
</g>
<g>
	<g>
		<path d="M478.51,43.351c-1.502-2.103-3.926-3.351-6.51-3.351h-30.699l-9.633-32.426c-1.257-4.235-5.709-6.649-9.944-5.392    c-2.594,0.77-4.622,2.798-5.392,5.392L406.699,40H376c-4.419,0.001-8,3.584-7.999,8.003c0.001,2.584,1.249,5.008,3.351,6.51    l24.965,17.828l-9.625,31.148c-1.306,4.22,1.057,8.7,5.277,10.006c2.474,0.766,5.166,0.286,7.223-1.287L424,93.258l24.809,18.949    c3.509,2.683,8.529,2.014,11.213-1.496c1.573-2.057,2.053-4.749,1.287-7.223l-9.625-31.148l24.965-17.828    C480.244,51.944,481.078,46.947,478.51,43.351z M434.691,71.547l3.941,12.758l-9.777-7.469c-2.866-2.193-6.845-2.193-9.711,0    l-9.777,7.469l3.941-12.758c1.016-3.295-0.191-6.87-2.996-8.875L400.969,56h11.699c3.541-0.001,6.66-2.328,7.668-5.723L424,37.945    l3.664,12.332c1.008,3.394,4.127,5.722,7.668,5.723h11.699l-9.344,6.672C434.882,64.677,433.675,68.252,434.691,71.547z" fill="#505050"/>
	</g>
</g>
<g>
	<g>
		<path d="M424,147.707c-6.961,0.004-13.893-0.898-20.621-2.684l-4.117,15.461c8.072,2.142,16.387,3.225,24.738,3.223h0.09    L424,147.707z" fill="#505050"/>
	</g>
</g>
<g>
	<g>
		<path d="M464.047,136.98c-6.046,3.501-12.526,6.192-19.273,8.004l4.145,15.453c8.103-2.175,15.885-5.407,23.145-9.613    L464.047,136.98z" fill="#505050"/>
	</g>
</g>
<g>
	<g>
		<path d="M367.512,124.36l-11.297,11.328c5.936,5.921,12.62,11.041,19.883,15.23l7.992-13.859    C378.035,133.565,372.462,129.296,367.512,124.36z" fill="#505050"/>
	</g>
</g>
<g>
	<g>
		<path d="M346.738,88.562l-15.445,4.164c2.182,8.1,5.422,15.876,9.637,23.129l13.836-8.031    C351.258,101.782,348.56,95.307,346.738,88.562z" fill="#505050"/>
	</g>
</g>
<g>
	<g>
		<path d="M331.191,43.067c-2.135,8.095-3.206,16.433-3.188,24.805l1.117,0.004L344,67.707c-0.005-6.933,0.889-13.837,2.66-20.539    L331.191,43.067z" fill="#505050"/>
	</g>
</g>
<g>
	<g>
		<path d="M355.949,0c-5.913,5.941-11.027,12.628-15.211,19.891l13.867,7.984c3.49-6.059,7.755-11.637,12.688-16.594L355.949,0z" fill="#505050"/>
	</g>
</g>
<g>
	<g>
		<path d="M10.757,193.715C6.861,197.804,3.266,202.169,0,206.776L12.774,216c2.823-3.983,5.931-7.755,9.3-11.288L10.757,193.715z" fill="#505050"/>
	</g>
</g>
<g>
	<g>
		<path d="M37.106,172.879c-4.834,2.845-9.471,6.013-13.878,9.483l9.668,12.5c3.846-3.029,7.894-5.794,12.115-8.275L37.106,172.879z    " fill="#505050"/>
	</g>
</g>
<g>
	<g>
		<path d="M67.99,160c-5.4,1.44-10.698,3.242-15.856,5.394l5.988,14.66c4.515-1.883,9.151-3.459,13.878-4.72L67.99,160z" fill="#505050"/>
	</g>
</g>
<g>
	<g>
		<rect x="448" y="432" width="16" height="16" fill="#505050"/>
	</g>
</g>
<g>
	<g>
		<rect x="448" y="464" width="16" height="16" fill="#505050"/>
	</g>
</g>
<g>
	<g>
		<rect x="464" y="448" width="16" height="16" fill="#505050"/>
	</g>
</g>
<g>
	<g>
		<rect x="432" y="448" width="16" height="16" fill="#505050"/>
	</g>
</g>
<g>
	<g>
		<rect x="304" y="264" width="16" height="16" fill="#505050"/>
	</g>
</g>
<g>
	<g>
		<rect x="304" y="296" width="16" height="16" fill="#505050"/>
	</g>
</g>
<g>
	<g>
		<rect x="320" y="280" width="16" height="16" fill="#505050"/>
	</g>
</g>
<g>
	<g>
		<rect x="288" y="280" width="16" height="16" fill="#505050"/>
	</g>
</g>
<g>
	<g>
		<rect x="16" y="0" width="16" height="16" fill="#505050"/>
	</g>
</g>
<g>
	<g>
		<rect x="16" y="32" width="16" height="16" fill="#505050"/>
	</g>
</g>
<g>
	<g>
		<rect x="32" y="16" width="16" height="16" fill="#505050"/>
	</g>
</g>
<g>
	<g>
		<rect y="16" width="16" height="16" fill="#505050"/>
	</g>
</g>
<g>
	<g>
		<path d="M317.658,130.344c-0.373-0.373-0.782-0.708-1.221-1.001l-17.902-11.934c-21.037-14.055-47.195-18.139-71.516-11.164    l-15.603,4.458l-12.761-19.141c-0.986-1.48-2.438-2.589-4.125-3.152l-24-8l-5.063,15.18l21.398,7.133l13.472,20.207l7.399,51.797    l-13.629,28.394l-13.188,5.496l6.156,14.766l16-6.668c1.814-0.754,3.285-2.15,4.133-3.922L221.032,184h18.565    c22.88,0.063,44.834-9.031,60.969-25.254l17.09-17.09C320.78,138.533,320.781,133.469,317.658,130.344z M239.598,168h-16.66    l-6.031-42.223l14.512-4.148c8.976-2.541,18.368-3.263,27.627-2.125c-5.562,14.636-3.417,31.085,5.71,43.806    C256.728,166.403,248.2,167.993,239.598,168z M289.254,147.434c-3.102,3.09-6.484,5.886-10.102,8.352    c-4.608-5.565-7.137-12.56-7.152-19.786c0.015-4.402,0.943-8.753,2.726-12.778c5.259,1.896,10.273,4.414,14.934,7.5l9.781,6.519    L289.254,147.434z" fill="#505050"/>
	</g>
</g>
<g>
	<g>
		<path d="M167.823,130.054c-1.055-1.22-2.197-2.362-3.417-3.417c-9.587-8.043-23.326-8.811-33.75-1.887l-31.074,20.578    c-3.685,2.442-4.692,7.409-2.25,11.094c0.592,0.893,1.357,1.658,2.25,2.25l31.07,20.574c4.617,3.075,10.039,4.718,15.586,4.723    c6.641-0.014,13.068-2.351,18.168-6.605C178.414,165.243,179.944,144.062,167.823,130.054z M155.481,163.757    c-0.404,0.448-0.83,0.874-1.278,1.278c-4.146,3.574-10.172,3.931-14.711,0.871L118.488,152l21.008-13.91    c4.538-3.06,10.564-2.701,14.707,0.875C161.402,145.458,161.974,156.558,155.481,163.757z" fill="#505050"/>
	</g>
</g>
<g>
</g>
<g>
</g>
<g>
</g>
<g>
</g>
<g>
</g>
<g>
</g>
<g>
</g>
<g>
</g>
<g>
</g>
<g>
</g>
<g>
</g>
<g>
</g>
<g>
</g>
<g>
</g>
<g>
</g>
</svg>
